<?xml version="1.0" encoding="utf-8"?>
<!-- Generator: Adobe Illustrator 24.2.1, SVG Export Plug-In . SVG Version: 6.00 Build 0)  -->
<svg version="1.1" id="svg17040" xmlns:svg="http://www.w3.org/2000/svg"
	 xmlns="http://www.w3.org/2000/svg" xmlns:xlink="http://www.w3.org/1999/xlink" x="0px" y="0px" viewBox="0 0 512 512"
	 style="enable-background:new 0 0 512 512;" xml:space="preserve">
<g id="layer1" transform="translate(0 -280.067)">
	<path d="M416.8,792.1c-33.8,0-61.3-27.5-61.3-61.3c0-8,1.6-15.8,4.7-23.3H222.2c-0.2,0-0.4,0-0.6,0c-6.6,0-10.3-5.1-10.4-10.2
		c-0.1-5.2,3.4-10.6,10.4-11l153,0c11.5-10.9,26.4-16.9,42.2-16.9c15.8,0,30.7,6,42.2,16.9h31.9v-89.4l-25.1-83.6
		c-1.6-5.2-3-8.9-6.7-8.9h-99.5V663c0,6.9-5.3,10.6-10.6,10.6s-10.6-3.6-10.6-10.6V442.9c0-3.7-2.7-6.3-6.3-6.3h-33.8
		c-0.2,0-0.4,0-0.6,0c-6.6,0-10.3-5.1-10.4-10.2c-0.1-5.2,3.4-10.6,10.4-11l34.4,0c15.2,0,27.5,12.3,27.5,27.5v40.2h99.5
		c6,0,20.4,2.1,26.2,21.5l26.2,87.7c0.3,1,0.5,2,0.5,3v135.4c0,2.8-1.1,5.5-3.1,7.5c-2,2-4.7,3.1-7.5,3.1h-24.3
		C472.1,770.4,446.4,792.1,416.8,792.1z M416.8,690.5c-22.2,0-40.2,18-40.2,40.2c0,22.2,18,40.2,40.2,40.2c22.2,0,40.3-18,40.3-40.2
		C457,708.6,439,690.5,416.8,690.5z M490.9,720.2v-12.7h-17.4c1.7,4.1,2.9,8.4,3.7,12.7H490.9z M145.9,792.1
		c-29.6,0-55.2-21.7-60.3-50.7H44.4c-2.9,0-5.5-1.1-7.5-3.1c-2-2-3.1-4.7-3.1-7.5V553c-0.1-5.8,4.6-10.6,10.5-10.7h0.1
		c2.8,0,5.5,1.1,7.5,3.1c2,2,3.1,4.7,3.1,7.6v133.3h48.8c11.5-10.9,26.4-16.9,42.2-16.9c29.7,0,55.3,21.7,60.4,50.8h125.8
		c6.9,0,10.6,5.3,10.6,10.6c0,5.3-3.6,10.6-10.6,10.6H206.3C201.2,770.4,175.6,792.1,145.9,792.1z M145.9,690.5
		c-22.2,0-40.2,18-40.2,40.2c0,22.2,18,40.2,40.2,40.2c22.2,0,40.3-18,40.3-40.2C186.2,708.6,168.1,690.5,145.9,690.5z M85.6,720.2
		c0.8-4.3,2-8.6,3.7-12.7H55v12.7H85.6z M416.8,758.3c-15.2,0-27.5-12.4-27.5-27.5c0-15.2,12.3-27.5,27.5-27.5
		c15.2,0,27.6,12.3,27.6,27.5C444.3,745.9,432,758.3,416.8,758.3z M416.8,724.4c-3.6,0-6.3,2.7-6.3,6.3c0,3.6,2.7,6.4,6.3,6.4
		c3.6,0,6.4-2.8,6.4-6.4C423.2,727.1,420.4,724.4,416.8,724.4z M145.9,758.3c-15.2,0-27.5-12.4-27.5-27.5
		c0-15.2,12.3-27.5,27.5-27.5c15.2,0,27.6,12.3,27.6,27.5c0,7.3-2.9,14.2-8.1,19.4C160.1,755.4,153.2,758.3,145.9,758.3z
		 M145.9,724.4c-3.6,0-6.3,2.7-6.3,6.3c0,3.6,2.7,6.4,6.3,6.4c3.6,0,6.4-2.8,6.4-6.4C152.3,727.1,149.6,724.4,145.9,724.4z
		 M383,639.7c-6.8-0.2-10.4-5.4-10.4-10.6c0-5.1,3.6-10.4,10.3-10.6l16.9,0c6.8,0.2,10.4,5.4,10.4,10.6c0,5.1-3.6,10.4-10.3,10.6
		l0,0H383z M425.3,605.9c-2.8,0-5.5-1.1-7.5-3.1L404,588.9h-21c-5.8,0-10.6-4.7-10.6-10.5v-50.9c0-5.8,4.8-10.5,10.6-10.5l62.8,0
		c4.7,0,8.8,3.1,10.1,7.6l20.3,67.7c1,3.2,0.3,6.6-1.7,9.3c-2,2.7-5.1,4.2-8.4,4.3h0H425.3z M451.9,584.7l-14-46.6h-44.4v29.6h14.8
		c2.8,0,5.5,1.1,7.5,3.1l13.8,13.8H451.9z M137.5,555.1C61.7,555.1,0,493.4,0,417.6C0,341.7,61.7,280,137.5,280
		c37.6,0,73.6,15.5,99.5,42.7v-15.2c-0.1-5.8,4.5-10.6,10.4-10.7l0.2,0c2.9,0,5.5,1.1,7.5,3.2c2,2,3.1,4.8,3,7.6v42.3
		c0,2.8-1.1,5.5-3.1,7.5c-2,2-4.7,3.1-7.5,3.1h-42.3c-7,0-10.6-5.3-10.6-10.6c0-5.3,3.6-10.6,10.6-10.6h18.4
		c-22-24.3-53.2-38.1-86.1-38.1c-64.2,0-116.4,52.2-116.4,116.4c0,31.1,12.1,60.4,34.1,82.3c22,21.9,51.2,34,82.4,34
		s60.4-12.1,82.4-34c22-22,34.1-51.2,34.1-82.3c0-10.4-1.4-20.9-4.2-31c-1.1-3.3-0.6-6.7,1.3-9.3c2-2.7,5.5-4.5,9.1-4.5
		c5,0,8.8,3.1,10,8.2c3.3,11.8,4.9,24.1,4.9,36.6C275,493.4,213.3,555.1,137.5,555.1z M196.8,470.6c-3,0-5.8-1.1-7.7-3.1
		c-1.9-2-2.9-4.6-2.8-7.7l0-31.7h-31.8c-5.8,0-10.6-4.7-10.6-10.6v-42.3c-0.1-2.8,1-5.5,3-7.5c2-2,4.6-3.2,7.5-3.2l0.1,0
		c2.9,0,5.5,1.1,7.5,3.2c2,2,3.1,4.8,3,7.6l0,31.6h21.2v-31.7c-0.1-5.8,4.5-10.6,10.4-10.7l0.2,0c2.9,0,5.5,1.1,7.6,3.2
		c2,2,3.1,4.8,3,7.6l0,84.6c0.1,3-0.9,5.7-2.8,7.6C202.6,469.5,199.7,470.6,196.8,470.6z M78.3,470.5c-2.9,0-5.5-1.1-7.5-3.1
		c-2-2-3.1-4.7-3.1-7.5v-42.3c0-2.8,1.1-5.5,3.1-7.5c2-2,4.7-3.1,7.5-3.1H110v-21.1l-32,0c-6.9,0-10.5-5.3-10.5-10.6
		c0-5.3,3.6-10.6,10.5-10.6l42.6,0c2.9,0,5.5,1.1,7.5,3.1c2,2,3.1,4.7,3.1,7.5v42.3c0,5.8-4.8,10.6-10.6,10.6H88.8v21.2l32,0
		c6.9,0,10.5,5.3,10.5,10.6c0,5.3-3.6,10.6-10.5,10.6L78.3,470.5z"/>
</g>
</svg>
