<?xml version="1.0" encoding="utf-8"?>
<!-- Generator: Adobe Illustrator 24.1.0, SVG Export Plug-In . SVG Version: 6.00 Build 0)  -->
<svg version="1.1" id="Layer_1" xmlns="http://www.w3.org/2000/svg" xmlns:xlink="http://www.w3.org/1999/xlink" x="0px" y="0px"
	 viewBox="0 0 541 612" style="enable-background:new 0 0 541 612;" xml:space="preserve">
<g>
	<path d="M4.8,606.6c3.2,3.6,7.4,5.4,11.5,5.4s8.4-1.8,11.5-5.4l242.7-274.5l242.6,274.5c3.2,3.6,7.4,5.4,11.5,5.4
		c4.2,0,8.4-1.8,11.5-5.4c6.4-7.2,6.4-18.9,0-26.1L293.6,306L536.2,31.5c6.4-7.2,6.4-18.9,0-26.1s-16.7-7.2-23.1,0L270.5,279.9
		L27.9,5.4c-6.4-7.2-16.7-7.2-23.1,0s-6.4,18.9,0,26.1L247.4,306L4.8,580.5C-1.6,587.7-1.6,599.4,4.8,606.6z"/>
</g>
</svg>
