<svg xmlns="http://www.w3.org/2000/svg" height="512" viewBox="0 0 128 128" width="512" xmlns:v="https://vecta.io/nano"><path d="M72 32h-4V16a4 4 0 1 0-8 0v16h-4a8.01 8.01 0 0 0-8 8v8a8.01 8.01 0 0 0 8 8h4v56a4 4 0 1 0 8 0V56h4a8.01 8.01 0 0 0 8-8v-8a8.01 8.01 0 0 0-8-8zm0 16H56v-8h16zm36 24h-4V16a4 4 0 1 0-8 0v56h-4a8.01 8.01 0 0 0-8 8v8a8.01 8.01 0 0 0 8 8h4v16a4 4 0 1 0 8 0V96h4a8.01 8.01 0 0 0 8-8v-8a8.01 8.01 0 0 0-8-8zm0 16H92v-8h16zM36 72h-4V16a4 4 0 1 0-8 0v56h-4a8.01 8.01 0 0 0-8 8v8a8.01 8.01 0 0 0 8 8h4v16a4 4 0 1 0 8 0V96h4a8.01 8.01 0 0 0 8-8v-8a8.01 8.01 0 0 0-8-8zm0 16H20v-8h16z"/></svg>