<svg xmlns="http://www.w3.org/2000/svg" viewBox="0 0 409.6 409.6" xmlns:v="https://vecta.io/nano"><path d="M234.6 408.8h-70.7c-6.3 0-11.4-5.1-11.4-11.4V233.1h-47.7c-6.3 0-11.4-5.1-11.4-11.4v-68.5c0-6.3 5.1-11.4 11.4-11.4h47.7v-39.1c0-30.6 9.3-56.4 26.8-74.4C196.9 10.3 222 .7 252 .7c25 0 47.4 1.9 54.3 2.9 5.8.7 10.1 5.8 9.8 11.5v61c0 6.3-5.1 11.4-11.4 11.4h-36.2c-20.4 0-22.5 6.7-22.5 21.9v32.3h56.4c3.4 0 6.6 1.5 8.7 4.1s3 5.8 2.6 8.9l-8.8 68.4c-.7 5.7-5.6 10-11.3 10H246v164.3c0 6.3-5.1 11.4-11.4 11.4zm-59.2-22.9h47.8V221.6c0-6.3 5.1-11.4 11.4-11.4h49l5.8-45.6h-54.8c-6.3 0-11.4-5.1-11.4-11.4v-43.7c0-19.2 4.7-44.8 45.4-44.8h24.8l.1-39.4c-8.5-.7-23.6-1.6-41.4-1.6-23.8 0-43.3 7.2-56.5 20.7-13.2 13.6-20.2 33.8-20.2 58.4v50.5c0 6.3-5.1 11.4-11.4 11.4h-47.7v45.6H164c6.3 0 11.4 5.1 11.4 11.4v164.2z"/></svg>