<?xml version="1.0" encoding="utf-8"?>
<!-- Generator: Adobe Illustrator 24.1.3, SVG Export Plug-In . SVG Version: 6.00 Build 0)  -->
<svg version="1.1" id="Layer_1" xmlns="http://www.w3.org/2000/svg" xmlns:xlink="http://www.w3.org/1999/xlink" x="0px" y="0px"
	 viewBox="0 0 359 359" style="enable-background:new 0 0 359 359;" xml:space="preserve">
<g id="Layer_2_1_">
	<path d="M13.1,74.5h332.8c7.1,0,12.8-5.7,12.8-12.8s-5.7-12.8-12.8-12.8H13.1C6,48.9,0.3,54.7,0.3,61.7S6,74.5,13.1,74.5z"/>
	<path d="M13.1,192.3h332.8c7.1,0,12.8-5.7,12.8-12.8s-5.7-12.8-12.8-12.8H13.1c-7.1,0-12.8,5.7-12.8,12.8S6,192.3,13.1,192.3z"/>
	<path d="M13.1,310.1h332.8c7.1,0,12.8-5.7,12.8-12.8c0-7.1-5.7-12.8-12.8-12.8H13.1c-7.1,0-12.8,5.7-12.8,12.8
		C0.3,304.3,6,310.1,13.1,310.1z"/>
</g>
</svg>
