<?xml version="1.0" encoding="utf-8"?>
<!-- Generator: Adobe Illustrator 24.2.1, SVG Export Plug-In . SVG Version: 6.00 Build 0)  -->
<svg version="1.1" id="Capa_1" xmlns="http://www.w3.org/2000/svg" xmlns:xlink="http://www.w3.org/1999/xlink" x="0px" y="0px"
	 viewBox="0 0 512 512" style="enable-background:new 0 0 512 512;" xml:space="preserve">
<g>
	<g>
		<path d="M30.5,478.5c-16.1,0-29.2-13.1-29.2-29.2V159.4c0-16.1,13.1-29.2,29.2-29.2h177.2c7.2,0,13.1,5.9,13.1,13.1
			s-5.9,13.1-13.1,13.1H27.5v70.5h180.2c7.2,0,13.1,5.9,13.1,13.1c0,7.2-5.9,13.1-13.1,13.1H27.5v199.3h457V336.5
			c0-7.2,5.9-13.1,13.1-13.1s13.1,5.9,13.1,13.1v112.7c0,16.1-13.1,29.2-29.2,29.2H30.5z"/>
	</g>
</g>
<g>
	<g>
		<path d="M78.8,349.6c-7.2,0-13.1-5.9-13.1-13.1c0-7.2,5.9-13.1,13.1-13.1h64.4c7.2,0,13.1,5.9,13.1,13.1c0,7.2-5.9,13.1-13.1,13.1
			H78.8z"/>
	</g>
</g>
<g>
	<g>
		<path d="M384.8,349.6c-2.3,0-4.5-0.6-6.5-1.7C291.4,297.8,259,246.7,259,159.4V94.9c0-5.2,3.1-10,7.9-12l112.7-48.3
			c1.6-0.7,3.4-1,5.2-1c1.8,0,3.5,0.4,5.2,1l112.7,48.3c4.8,2.1,7.9,6.8,7.9,12v64.4c0,87.5-32.3,138.5-119.3,188.5
			C389.4,349,387.1,349.6,384.8,349.6z M285.2,103.6v55.8c0,75.4,25.7,117.6,98.1,161.1l1.6,0.9l1.6-0.9
			c72.4-43.4,98.1-85.6,98.1-161.1v-55.8l-99.7-42.7L285.2,103.6z"/>
	</g>
</g>
<g>
	<g>
		<path d="M368.1,236.9c-4.2-0.2-8-2.4-10.3-5.8l-32.2-48.3c-1.9-2.9-2.6-6.4-1.9-9.8c0.7-3.4,2.7-6.4,5.6-8.3
			c2.1-1.4,4.6-2.2,7.2-2.2c4.4,0,8.5,2.2,11,5.8l22.3,33.4l53.2-66.5c2.5-3.1,6.2-4.9,10.2-4.9c3,0,5.8,1,8.2,2.8
			c5.6,4.5,6.5,12.7,2,18.4L379,231.9c-2.5,3.1-6.2,4.9-10.2,4.9H368.1z"/>
	</g>
</g>
</svg>
