<?xml version="1.0" encoding="utf-8"?>
<!-- Generator: Adobe Illustrator 24.2.1, SVG Export Plug-In . SVG Version: 6.00 Build 0)  -->
<svg version="1.1" id="Capa_1" xmlns="http://www.w3.org/2000/svg" xmlns:xlink="http://www.w3.org/1999/xlink" x="0px" y="0px"
	 viewBox="0 0 512 512" style="enable-background:new 0 0 512 512;" xml:space="preserve">
<g>
	<g>
		<path d="M10.7,467.7c-2.5,0-4.9-1-6.6-2.8c-1.7-1.7-2.7-4.1-2.7-6.6V277.7c0-5.2,4.2-9.4,9.4-9.4s9.4,4.2,9.4,9.4V449h471.8V142
			H324.6v69.7l0,0.1c0,0.2,0,0.3,0,0.5c0,0.2,0,0.3,0,0.4c0,0.2,0,0.3-0.1,0.4c0,0.2-0.1,0.3-0.1,0.5l-0.1,0.2
			c-0.1,0.3-0.1,0.5-0.2,0.6l-0.1,0.2c-0.1,0.2-0.2,0.4-0.3,0.7c0,0.1-0.1,0.1-0.1,0.2c-0.1,0.2-0.2,0.4-0.3,0.6
			c0,0.1-0.1,0.2-0.2,0.3l-1.7-0.9l1.7,1c-0.1,0.1-0.2,0.3-0.3,0.4c-0.1,0.1-0.1,0.2-0.2,0.3l-0.1,0.1c-0.1,0.1-0.1,0.2-0.2,0.2
			c-0.1,0.1-0.2,0.2-0.3,0.4l-1.5-1.3l1.5,1.3c-0.1,0.1-0.1,0.2-0.2,0.2c-0.1,0.1-0.2,0.2-0.3,0.3l-1.4-1.4l1.3,1.5
			c-0.1,0.1-0.2,0.2-0.3,0.2c-0.1,0.1-0.2,0.1-0.3,0.2c-0.2,0.1-0.3,0.2-0.5,0.3c-0.1,0.1-0.2,0.1-0.3,0.2c-0.2,0.1-0.4,0.2-0.6,0.3
			l-0.1,0l-19.8,9.9c-0.1,0-0.2,0.1-0.3,0.1c-0.1,0.1-0.3,0.1-0.4,0.2c-0.2,0.1-0.5,0.2-0.8,0.3c-0.2,0.1-0.3,0.1-0.4,0.1
			c-0.3,0.1-0.6,0.1-0.9,0.2c-0.1,0-0.2,0-0.3,0.1c-0.3,0-0.6,0.1-0.9,0.1l-0.5,0c-0.3,0-0.6,0-1-0.1c-0.1,0-0.2,0-0.3,0
			c-0.3-0.1-0.6-0.1-0.9-0.2c-0.1,0-0.2-0.1-0.3-0.1c-0.3-0.1-0.6-0.2-0.8-0.3c-0.1-0.1-0.3-0.1-0.4-0.2c-0.1,0-0.2-0.1-0.3-0.1
			l-15.5-7.8l-15.5,7.8c-0.1,0-0.2,0.1-0.3,0.1c-0.1,0.1-0.3,0.1-0.4,0.2c-0.3,0.1-0.5,0.2-0.7,0.3c0,0-0.3,0.1-0.4,0.1
			c-0.3,0.1-0.6,0.1-0.9,0.2c-0.1,0-0.2,0-0.3,0.1c-0.3,0-0.7,0.1-1,0.1l-0.5,0l0,0c-0.3,0-0.6,0-1-0.1c-0.1,0-0.2,0-0.3,0
			c-0.3-0.1-0.6-0.1-0.9-0.2c-0.1,0-0.2-0.1-0.3-0.1c-0.3-0.1-0.6-0.2-0.8-0.3c-0.1-0.1-0.3-0.1-0.4-0.2c-0.1,0-0.2-0.1-0.3-0.1
			l-15.5-7.8l-15.5,7.8c-0.1,0-0.2,0.1-0.3,0.1c-0.1,0.1-0.3,0.1-0.4,0.2c-0.3,0.1-0.5,0.2-0.7,0.3c0,0-0.3,0.1-0.4,0.1
			c-0.3,0.1-0.6,0.1-0.9,0.2c-0.1,0-0.2,0-0.3,0.1c-0.3,0-0.6,0.1-0.9,0.1l0,0l-0.5,0l0,0c-0.3,0-0.6,0-0.9-0.1c-0.1,0-0.2,0-0.3,0
			c-0.3-0.1-0.6-0.1-0.9-0.2c-0.1,0-0.2-0.1-0.3-0.1c-0.3-0.1-0.6-0.2-0.8-0.3c-0.2-0.1-0.3-0.1-0.4-0.2c-0.1,0-0.2-0.1-0.3-0.1
			l-19.8-9.9l-0.1-0.1c-0.1-0.1-0.3-0.2-0.5-0.3c-0.1-0.1-0.2-0.1-0.3-0.2c-0.1-0.1-0.2-0.1-0.3-0.2l-0.1-0.1
			c-0.1-0.1-0.2-0.2-0.3-0.2c-0.1-0.1-0.2-0.1-0.2-0.2c-0.2-0.2-0.3-0.3-0.5-0.4c-0.1-0.1-0.1-0.1-0.2-0.2c-0.2-0.2-0.3-0.3-0.4-0.5
			c-0.1-0.1-0.1-0.2-0.2-0.2c-0.2-0.2-0.3-0.3-0.4-0.5c-0.1-0.1-0.1-0.2-0.2-0.3l1.6-1.1l-1.7,1c-0.1-0.1-0.1-0.2-0.2-0.3
			c-0.1-0.1-0.2-0.3-0.2-0.4l1.7-1l-1.8,0.9c0-0.1-0.1-0.2-0.1-0.3c-0.1-0.2-0.1-0.3-0.2-0.5c-0.1-0.2-0.1-0.2-0.1-0.3
			c-0.1-0.2-0.1-0.3-0.1-0.5c0-0.2-0.1-0.3-0.1-0.4c0-0.1-0.1-0.3-0.1-0.5c0-0.2-0.1-0.3-0.1-0.5l0-0.4c0-0.2,0-0.4,0-0.6l0-0.1V142
			H20.1v106.1c0,5.2-4.2,9.4-9.4,9.4s-9.4-4.2-9.4-9.4V132.6l0-0.1c0-0.1,0-0.3,0-0.4c0-0.2,0-0.3,0-0.4c0-0.2,0.1-0.4,0.1-0.6
			c0-0.1,0-0.2,0-0.3c0.1-0.2,0.1-0.5,0.2-0.7l0-0.1c0.1-0.3,0.2-0.5,0.3-0.8l0-0.1c0.1-0.2,0.2-0.5,0.3-0.7l0.1-0.1
			c0.1-0.2,0.2-0.4,0.4-0.6l0.1-0.2c0.1-0.2,0.2-0.3,0.4-0.5c0.1-0.1,0.3-0.3,0.3-0.4l69.1-79c0.1-0.1,0.1-0.1,0.2-0.2
			c0.1-0.1,0.3-0.3,0.4-0.4c0.1-0.1,0.2-0.2,0.3-0.3c0.2-0.1,0.3-0.2,0.4-0.3c0.1-0.1,0.3-0.2,0.4-0.3c0.1-0.1,0.2-0.2,0.4-0.2
			c0.1-0.1,0.3-0.2,0.4-0.3c0.1-0.1,0.2-0.1,0.4-0.2c0.1-0.1,0.3-0.1,0.4-0.2c0.1-0.1,0.3-0.1,0.4-0.2c0.1-0.1,0.3-0.1,0.4-0.2
			c0.1-0.1,0.3-0.1,0.5-0.1c0.1,0,0.3-0.1,0.4-0.1c0.1,0,0.3-0.1,0.5-0.1c0.2,0,0.3-0.1,0.5-0.1c0.1,0,0.3,0,0.4-0.1
			c0.2,0,0.3,0,0.5,0c0.1,0,0.2,0,0.3,0h352.4c0.1,0,0.2,0,0.3,0c0.2,0,0.4,0,0.5,0c0.2,0,0.3,0,0.4,0.1c0.2,0,0.3,0,0.5,0.1
			c0.2,0,0.3,0.1,0.5,0.1c0.1,0,0.3,0.1,0.4,0.1c0.1,0,0.3,0.1,0.4,0.1c0.1,0.1,0.3,0.1,0.4,0.1c0.2,0.1,0.3,0.1,0.4,0.2
			c0.1,0.1,0.3,0.1,0.4,0.2c0.1,0.1,0.3,0.1,0.4,0.2c0.1,0.1,0.3,0.2,0.4,0.3c0.1,0.1,0.2,0.2,0.3,0.2c0.1,0.1,0.3,0.2,0.4,0.3
			c0.1,0.1,0.2,0.2,0.3,0.3c0.1,0.1,0.3,0.2,0.4,0.3c0.1,0.1,0.2,0.2,0.4,0.4c0.1,0.1,0.1,0.1,0.2,0.2l69.1,79l0.2,0.3
			c0.2,0.2,0.3,0.4,0.4,0.6l0.1,0.2c0.1,0.2,0.3,0.4,0.4,0.6l0.1,0.1c0.1,0.2,0.2,0.5,0.3,0.7l0,0.1c0.1,0.3,0.2,0.5,0.3,0.7l0,0.1
			c0.1,0.3,0.1,0.5,0.2,0.7c0,0.1,0,0.1,0,0.2c0,0.2,0.1,0.4,0.1,0.7c0,0.1,0,0.2,0,0.3c0,0.2,0,0.4,0,0.6c0,0,0,0.1,0,0.1v325.7
			c0,2.5-1,4.9-2.8,6.6c-1.7,1.7-4.2,2.7-6.6,2.7H10.7z M275.8,202.2c0.1,0,0.3,0,0.4,0c0.2,0,0.3,0,0.5,0c0.1,0,0.3,0,0.4,0
			c0.2,0,0.3,0.1,0.5,0.1l0.4,0.1c0.2,0,0.3,0.1,0.5,0.1c0.1,0,0.3,0.1,0.4,0.1c0.1,0,0.3,0.1,0.4,0.2c0.2,0.1,0.3,0.1,0.4,0.2
			c0.1,0,0.1,0.1,0.2,0.1l15.5,7.8l10.4-5.2V142h-99.7v63.8l10.4,5.2l15.6-7.8l0.1-0.1c0.1-0.1,0.3-0.1,0.4-0.2
			c0.1-0.1,0.3-0.1,0.4-0.2c0.1-0.1,0.3-0.1,0.4-0.1c0.2-0.1,0.3-0.1,0.5-0.1c0.1,0,0.3-0.1,0.4-0.1c0.2,0,0.3-0.1,0.5-0.1
			c0.1,0,0.2,0,0.4,0l0.2,0c0.1,0,0.3,0,0.4,0c0.1,0,0.2,0,0.4,0l0.1,2l0-2c0,0,0,0,0,0c0.2,0,0.3,0,0.4,0c0.1,0,0.3,0,0.4,0
			c0,0,0.3,0,0.4,0.1c0.2,0,0.3,0.1,0.5,0.1c0.2,0,0.3,0.1,0.4,0.1c0.2,0,0.3,0.1,0.5,0.1c0.1,0,0.3,0.1,0.4,0.1
			c0.1,0.1,0.3,0.1,0.4,0.2c0.2,0.1,0.3,0.1,0.4,0.2c0,0,0.1,0,0.2,0.1L256,211l15.6-7.8l0.1-0.1c0.1-0.1,0.3-0.1,0.4-0.2
			c0.2-0.1,0.3-0.1,0.4-0.2c0.1,0,0.3-0.1,0.4-0.1c0.1,0,0.3-0.1,0.5-0.1c0.1,0,0.2-0.1,0.4-0.1c0.2,0,0.4-0.1,0.5-0.1
			c0.1,0,0.3,0,0.3,0l0.1,0c0.1,0,0.3,0,0.4,0c0.1,0,0.2,0,0.4,0l0.1,2L275.8,202.2L275.8,202.2z M480.6,123.2L427.9,63H299.1
			l22.6,60.2H480.6z M301.7,123.2L279.1,63h-46.2l-22.6,60.2H301.7z M190.3,123.2L212.9,63H84.1l-52.7,60.2H190.3z"/>
	</g>
</g>
<g>
	<g>
		<path d="M50.2,398.6c-5.2,0-9.4-4.2-9.4-9.4c0-5.2,4.2-9.4,9.4-9.4h69.1c5.2,0,9.4,4.2,9.4,9.4c0,5.2-4.2,9.4-9.4,9.4H50.2z"/>
	</g>
</g>
<g>
	<g>
		<path d="M50.2,428.2c-5.2,0-9.4-4.2-9.4-9.4s4.2-9.4,9.4-9.4h39.5c5.2,0,9.4,4.2,9.4,9.4s-4.2,9.4-9.4,9.4H50.2z"/>
	</g>
</g>
<g>
	<g>
		<path d="M432.2,428.2c-5.2,0-9.4-4.2-9.4-9.4v-29.6c0-5.2,4.2-9.4,9.4-9.4h29.6c5.2,0,9.4,4.2,9.4,9.4v29.6c0,5.2-4.2,9.4-9.4,9.4
			H432.2z M452.4,409.5v-10.9h-10.9v10.9H452.4z"/>
	</g>
</g>
<g>
	<g>
		<path d="M373,428.2c-5.2,0-9.4-4.2-9.4-9.4v-29.6c0-5.2,4.2-9.4,9.4-9.4h29.6c5.2,0,9.4,4.2,9.4,9.4v29.6c0,5.2-4.2,9.4-9.4,9.4
			H373z M393.2,409.5v-10.9h-10.9v10.9H393.2z"/>
	</g>
</g>
</svg>
