<svg xmlns="http://www.w3.org/2000/svg" height="681.333" viewBox="0 -10 511.987 511" width="681.333" xmlns:v="https://vecta.io/nano"><path d="M510.652 185.902a27.16 27.16 0 0 0-23.426-18.711l-147.773-13.418-58.434-136.77C276.71 6.98 266.898.492 255.996.492S235.28 6.98 230.973 17.027L172.54 153.773 24.742 167.19c-10.86 1.004-20.03 8.344-23.402 18.71s-.258 21.738 7.957 28.906l111.7 97.96-32.937 145.1c-2.4 10.668 1.73 21.695 10.582 28.094 4.758 3.438 10.324 5.188 15.938 5.188 4.84 0 9.64-1.305 13.95-3.883l127.47-76.184 127.422 76.184c9.324 5.61 21.078 5.098 29.9-1.305 8.855-6.418 12.992-17.45 10.582-28.094l-32.937-145.1 111.7-97.94c8.215-7.187 11.352-18.54 7.98-28.926zm0 0" fill="#ffc107"/></svg>